<svg xmlns="http://www.w3.org/2000/svg" xmlns:xlink="http://www.w3.org/1999/xlink" version="1.1" x="0px" y="0px" viewBox="0 0 32 40" enable-background="new 0 0 32 32" xml:space="preserve"><g><polygon points="11,16 13,12 12,12 10,16  "/><path d="M9,16l2-4H3c-0.5522461,0-1,0.4477539-1,1v3H9z M7,13c0.5523071,0,1,0.4476929,1,1s-0.4476929,1-1,1   c-0.5522461,0-1-0.4476929-1-1S6.4477539,13,7,13z M4,13c0.5523071,0,1,0.4476929,1,1s-0.4476929,1-1,1   c-0.5522461,0-1-0.4476929-1-1S3.4477539,13,4,13z"/><path d="M22,16v-3c0-0.5522461-0.4477539-1-1-1h-7l-2,4H22z"/><polygon points="15,11 17,7 16,7 14,11  "/><path d="M13,11l2-4H7C6.4477539,7,6,7.4477539,6,8v3H13z M11,8c0.5523071,0,1,0.4476929,1,1s-0.4476929,1-1,1   c-0.5522461,0-1-0.4476929-1-1S10.4477539,8,11,8z M8,8c0.5523071,0,1,0.4476929,1,1s-0.4476929,1-1,1   c-0.5522461,0-1-0.4476929-1-1S7.4477539,8,8,8z"/><path d="M26,11V8c0-0.5522461-0.4477539-1-1-1h-7l-2,4H26z"/><polygon points="19,6 21,2 20,2 18,6  "/><path d="M17,6l2-4h-8c-0.5522461,0-1,0.4477539-1,1v3H17z M15,3c0.5523071,0,1,0.4476929,1,1s-0.4476929,1-1,1   c-0.5522461,0-1-0.4476929-1-1S14.4477539,3,15,3z M12,3c0.5523071,0,1,0.4476929,1,1s-0.4476929,1-1,1   c-0.5522461,0-1-0.4476929-1-1S11.4477539,3,12,3z"/><path d="M30,6V3c0-0.5522461-0.4477539-1-1-1h-7l-2,4H30z"/><path d="M25,25h-2V12h3v12C26,24.5522842,25.5522842,25,25,25z"/><path d="M29,20h-2V7h3v12C30,19.5522842,29.5522842,20,29,20z"/><path d="M2,17v12c0,0.5522461,0.4477539,1,1,1h18c0.5522461,0,1-0.4477539,1-1V17H2z M8.8200684,26.1158447   c0.2119141,0.1767578,0.2407227,0.4921875,0.0639648,0.7045898c-0.0991211,0.1186523-0.2412109,0.1796875-0.3847656,0.1796875   c-0.112793,0-0.2260742-0.0380859-0.3198242-0.1157227l-3-2.5c-0.1137695-0.0952148-0.1796875-0.2358398-0.1796875-0.3842773   s0.065918-0.2890625,0.1796875-0.3842773l3-2.5c0.2128906-0.1767578,0.527832-0.1479492,0.7045898,0.0639648   c0.1767578,0.2124023,0.1479492,0.527832-0.0639648,0.7045898l-2.5390625,2.1157227L8.8200684,26.1158447z M13.9286499,21.7568359   l-3,5c-0.09375,0.15625-0.2592773,0.2426758-0.4291992,0.2426758c-0.0874023,0-0.1762695-0.0229492-0.2568359-0.0712891   c-0.2368164-0.1420898-0.3134766-0.4492188-0.1713867-0.6860352l3-5c0.1425781-0.2373047,0.453125-0.3120117,0.6855469-0.1713867   C13.9940796,21.2128906,14.071228,21.5200195,13.9286499,21.7568359z M18.8203125,24.3843994l-3,2.5   c-0.09375,0.0776367-0.2070313,0.1157227-0.3198242,0.1157227c-0.1435547,0-0.2856445-0.0610352-0.3847656-0.1796875   c-0.1767578-0.2124023-0.1479492-0.527832,0.0639648-0.7045898l2.5390625-2.1157227l-2.5390625-2.1157227   c-0.2119141-0.1767578-0.2407227-0.4921875-0.0639648-0.7045898c0.1767578-0.2119141,0.4916992-0.2407227,0.7045898-0.0639648   l3,2.5C18.934082,23.7110596,19,23.8516846,19,24.0001221S18.934082,24.2891846,18.8203125,24.3843994z"/></g></svg>